<svg width="793" height="689" viewBox="0 0 793 689" fill="none" xmlns="http://www.w3.org/2000/svg">
<rect opacity="0.06" x="210" y="-45" width="947" height="734" rx="367" fill="#0061FE"/>
<path d="M824.72 405.91C820.495 382.072 811.634 357.935 794.685 340.183C778.205 322.925 753.971 315.195 730.97 311.67C715.705 309.33 698.677 306.901 683.339 307.425C664.475 308.071 646.488 310.823 627.423 309.437C588.966 306.642 551.474 296.791 514.153 287.661C447.012 271.24 382.441 263.03 315.373 286.442C216.888 320.82 152.714 405.871 122.403 502.965C115.549 524.918 110.345 547.375 106.605 570.057C129.816 570.057 153.022 570.057 176.233 570.057C231.967 570.057 287.696 570.057 343.431 570.057C410.93 570.057 478.423 570.057 545.922 570.057C604.423 570.057 662.928 570.057 721.428 570.057C750.509 570.057 779.591 570.106 808.672 570.033C806.885 562.591 808.917 554.831 810.816 547.419C822.478 501.956 833.048 452.856 824.72 405.91Z" fill="url(#paint0_radial)"/>
<path d="M0.614258 530.156H940.614V674.583H0.614258V530.156Z" fill="url(#paint1_radial)"/>
<path d="M376.125 553.411H198.896" stroke="#0061FE" stroke-width="0.489583" stroke-miterlimit="10"/>
<path d="M444.177 545.578H266.948" stroke="#0061FE" stroke-width="0.489583" stroke-miterlimit="10"/>
<path d="M644.172 577.401H745.516" stroke="#0061FE" stroke-width="0.489583" stroke-miterlimit="10"/>
<path d="M427.531 335.792C427.531 335.792 430.958 362.719 421.656 364.677C412.354 366.635 395.708 367.125 395.708 367.125L391.302 387.687L405.99 420.49L428.021 430.771L456.417 419.51L487.75 383.281L493.625 359.292C493.625 359.292 477.469 364.187 472.573 359.781C467.677 355.375 464.735 331.566 472.573 310.671C480.411 289.776 461.312 299.562 461.312 299.562L423.615 330.896L427.531 335.792Z" fill="#FFDE99"/>
<path d="M427.531 335.792C427.531 335.792 430.958 362.719 421.656 364.677C412.354 366.635 395.708 367.125 395.708 367.125L391.302 387.687L405.99 420.49L428.021 430.771L456.417 419.51L487.75 383.281L493.625 359.292C493.625 359.292 477.469 364.187 472.573 359.781C467.677 355.375 464.735 331.566 472.573 310.671C480.411 289.776 461.312 299.562 461.312 299.562L423.615 330.896L427.531 335.792Z" fill="url(#paint2_radial)"/>
<path d="M427.531 335.792C427.531 335.792 430.958 362.719 421.656 364.677C412.354 366.635 395.708 367.125 395.708 367.125L391.302 387.687L405.99 420.49L428.021 430.771L456.417 419.51L487.75 383.281L493.625 359.292C493.625 359.292 477.469 364.187 472.573 359.781C467.677 355.375 464.735 331.566 472.573 310.671C480.411 289.776 461.312 299.562 461.312 299.562L423.615 330.896L427.531 335.792Z" fill="url(#paint3_radial)"/>
<path d="M405.255 270.432C405.255 270.432 394.881 323.253 417.177 344.188C417.984 344.947 419.086 345.324 420.192 345.241C426.307 344.785 447.056 342.303 454.948 329.427C464.25 314.25 470.614 308.865 470.614 308.865C470.614 308.865 482.119 320.859 486.036 311.068C489.953 301.276 487.505 289.036 475.755 289.036L449.318 244.974L422.88 247.911L405.255 270.432Z" fill="#FFDE99"/>
<path d="M442.708 295.156L452.5 297.115L442.464 315.229L417.74 338.729C417.74 338.729 414.073 336.384 409.142 332.761C403.551 320.786 402.523 305.491 402.925 293.046C427.747 289.022 442.708 295.156 442.708 295.156Z" fill="url(#paint4_radial)"/>
<path d="M438.302 253.052C438.302 253.052 439.771 291.729 470.614 295.156C470.614 295.156 450.052 290.26 445.156 262.354C445.156 262.354 460.333 297.115 476 291.729C480.891 290.045 483.818 293.472 485.547 297.261C487.946 302.529 485.894 308.894 480.636 311.317C477.811 312.62 474.335 312.585 470.614 308.865C470.614 308.865 462.781 351.948 477.958 349.5C477.958 349.5 468.166 349.99 470.614 326.979C470.614 326.979 482.854 324.042 495.093 327.469C507.333 330.896 527.896 305.927 518.104 253.052L498.521 227.104C498.521 227.104 447.687 212.387 422.195 232.323C420.138 233.929 417.96 235.373 415.742 236.749C410.396 240.078 399.747 251.461 400.114 289.281C400.114 289.281 399.625 275.573 407.458 267.25C407.458 267.25 404.54 268.631 403.796 280.669C403.796 280.669 411.864 260.885 438.302 253.052Z" fill="#241921"/>
<path d="M508.801 224.656C509.291 223.677 510.27 192.833 544.051 199.198C551.596 200.618 557.481 203.09 562.068 206.072C578.028 216.441 578.322 232.979 578.322 232.979L554.822 204.583C554.822 204.583 524.958 190.875 518.103 215.844C518.103 215.844 537.609 189.367 567.287 209.024C575.448 214.429 581.71 222.252 585.495 231.28C591.59 245.821 604.084 271.358 615.046 266.76C615.046 266.76 606.601 281.257 591.546 283.406C574.41 285.854 548.502 279.822 535.053 251.476C533.638 248.494 531.273 246.036 528.287 244.631C525.829 243.476 522.95 243.04 520.556 245.219C515.171 250.115 508.806 226.615 508.806 226.615V224.656H508.801Z" fill="#241921"/>
<path d="M498.52 227.104C498.52 227.104 499.499 218.781 505.864 218.292C512.229 217.802 537.197 254.521 518.104 253.052C518.104 253.052 502.926 237.385 498.52 227.104Z" fill="#0061FE"/>
<path d="M498.52 227.104C498.52 227.104 499.499 218.781 505.864 218.292C512.229 217.802 537.197 254.521 518.104 253.052C518.104 253.052 502.926 237.385 498.52 227.104Z" fill="url(#paint5_radial)"/>
<path d="M520.748 239.951L515.024 244.553" stroke="#0144B9" stroke-width="0.489583" stroke-miterlimit="10"/>
<path d="M517.526 235.946L511.808 240.548" stroke="#0144B9" stroke-width="0.489583" stroke-miterlimit="10"/>
<path d="M510.167 226.791L504.444 231.393" stroke="#0144B9" stroke-width="0.489583" stroke-miterlimit="10"/>
<path d="M519.367 238.237L513.644 242.839" stroke="#0144B9" stroke-width="0.489583" stroke-miterlimit="10"/>
<path d="M514.153 231.75L508.43 236.352" stroke="#0144B9" stroke-width="0.489583" stroke-miterlimit="10"/>
<path d="M514.432 291.484C514.432 291.484 508.067 324.776 493.38 318.901" stroke="#0144B9" stroke-width="0.489583" stroke-miterlimit="10"/>
<path d="M438.057 247.422C438.057 247.422 420.921 248.401 407.702 265.536" stroke="#0144B9" stroke-width="0.489583" stroke-miterlimit="10"/>
<path d="M581.995 409.963C581.995 409.963 546.755 406.179 526.814 407.364C519.847 407.78 513.982 412.705 512.381 419.496C510.163 428.905 506.32 442.844 501.703 449.615C495.902 458.124 500.797 509.124 503.108 530.151H405.985C399.728 516.345 388.115 489.878 383.224 473.115C376.37 449.615 387.141 446.677 388.609 426.604C388.609 426.604 368.536 444.229 362.661 451.084C362.661 451.084 365.109 452.552 364.13 454.511C363.151 456.469 362.661 459.406 362.661 459.406C362.661 459.406 332.307 452.552 325.943 460.386L323.005 455.979L326.922 447.656L331.818 443.25C331.818 443.25 370.495 379.115 383.714 370.792C396.932 362.469 410.734 366.18 410.734 366.18C410.734 366.18 404.766 420.729 429.734 418.281C454.703 415.834 481.508 361.553 481.508 361.553C481.508 361.553 484.078 357.088 493.87 356.599C503.661 356.109 617.734 374.224 633.891 388.911C633.891 388.911 642.214 388.422 643.682 395.276C643.682 395.276 655.922 396.255 652.005 410.453L581.995 409.963Z" fill="#0061FE"/>
<path d="M325.943 460.391C325.943 460.391 332.797 500.047 341.61 513.266C341.61 513.266 348.464 506.901 358.255 507.391C358.255 507.391 355.386 475.553 360.248 458.912C360.248 458.912 334.266 452.557 325.943 460.391Z" fill="#FFDE99"/>
<path d="M325.943 460.391C325.943 460.391 332.797 500.047 341.61 513.266C341.61 513.266 348.464 506.901 358.255 507.391C358.255 507.391 355.386 475.553 360.248 458.912C360.248 458.912 334.266 452.557 325.943 460.391Z" fill="url(#paint6_radial)"/>
<path d="M358.333 505.638L371.229 497.844C371.229 497.844 381.51 521.344 381.51 528.688C381.51 528.688 378.572 532.604 372.697 518.896L371.229 524.281L363.885 525.26L361.926 523.302L360.947 525.75L358.499 526.24L354.093 524.281L352.135 526.24L346.749 525.75C346.749 525.75 341.364 520.365 341.364 513.021C341.364 505.677 358.333 505.638 358.333 505.638Z" fill="#FFDE99"/>
<path d="M367.801 508.614L372.697 518.896L371.229 524.281L363.885 525.26L361.926 523.302L360.947 525.75L358.499 526.239L354.093 524.281L352.135 526.239L346.749 525.75C346.749 525.75 341.364 520.364 341.364 513.021C355.072 505.677 367.801 508.614 367.801 508.614Z" fill="url(#paint7_radial)"/>
<path d="M505.844 441.365C505.653 441.85 505.458 442.325 505.262 442.79C505.223 442.878 505.188 442.961 505.149 443.05C504.953 443.515 504.753 443.97 504.547 444.411C504.518 444.479 504.483 444.543 504.454 444.611C504.239 445.076 504.023 445.527 503.808 445.967C503.671 446.242 503.534 446.506 503.396 446.77C502.985 447.554 502.559 448.293 502.133 448.969C501.991 449.194 501.849 449.414 501.702 449.625C501.619 449.742 501.546 449.874 501.467 450.006C501.453 450.036 501.433 450.065 501.419 450.1C501.345 450.237 501.272 450.379 501.203 450.525C501.193 450.55 501.184 450.574 501.174 450.594C501.11 450.736 501.046 450.878 500.988 451.03C500.973 451.059 500.963 451.093 500.949 451.123C500.885 451.289 500.821 451.465 500.758 451.652C500.743 451.691 500.733 451.73 500.718 451.769C500.66 451.94 500.606 452.122 500.552 452.308C500.547 452.327 500.537 452.352 500.532 452.371C500.474 452.572 500.42 452.782 500.366 452.998C500.351 453.047 500.341 453.101 500.327 453.15C500.273 453.37 500.219 453.595 500.17 453.825C500.165 453.845 500.16 453.864 500.16 453.884C500.111 454.104 500.067 454.334 500.023 454.565C500.013 454.618 500.004 454.672 499.994 454.721C499.95 454.966 499.906 455.221 499.862 455.475C499.852 455.524 499.847 455.573 499.837 455.622C499.798 455.857 499.764 456.097 499.729 456.342C499.725 456.391 499.715 456.435 499.71 456.484C499.671 456.758 499.636 457.037 499.602 457.321C499.592 457.385 499.587 457.448 499.578 457.512C499.543 457.791 499.514 458.075 499.485 458.364C499.485 458.383 499.48 458.398 499.48 458.418C499.45 458.721 499.421 459.03 499.392 459.343C499.387 459.416 499.377 459.485 499.372 459.558C499.348 459.867 499.318 460.185 499.294 460.503C499.289 460.552 499.289 460.601 499.284 460.645C499.264 460.939 499.245 461.233 499.225 461.531C499.22 461.605 499.215 461.673 499.21 461.747C499.191 462.08 499.171 462.413 499.152 462.75C499.147 462.824 499.147 462.897 499.142 462.971C499.127 463.284 499.113 463.597 499.098 463.92C499.098 463.969 499.093 464.023 499.093 464.072C499.078 464.425 499.064 464.787 499.054 465.149C499.049 465.233 499.049 465.316 499.044 465.404C499.034 465.771 499.024 466.143 499.015 466.525C499.015 466.54 499.015 466.559 499.015 466.574C499.005 466.941 499 467.308 498.995 467.685C498.995 467.773 498.99 467.862 498.99 467.955C498.985 468.332 498.98 468.713 498.976 469.1C498.976 469.169 498.976 469.242 498.976 469.311C498.976 469.658 498.971 470.006 498.971 470.354C498.971 470.432 498.971 470.51 498.971 470.593C498.971 470.99 498.971 471.387 498.976 471.788C498.976 471.876 498.976 471.964 498.976 472.052C498.976 472.429 498.98 472.806 498.985 473.188C498.985 473.232 498.985 473.281 498.985 473.325C498.99 473.737 498.995 474.158 499.005 474.574C499.005 474.672 499.01 474.77 499.01 474.868C499.02 475.284 499.024 475.705 499.034 476.131C499.034 476.185 499.039 476.238 499.039 476.287C499.049 476.674 499.059 477.066 499.069 477.462C499.073 477.56 499.073 477.653 499.078 477.751C499.088 478.177 499.103 478.603 499.117 479.034C499.122 479.117 499.122 479.205 499.127 479.288C499.142 479.675 499.152 480.062 499.166 480.449C499.171 480.527 499.171 480.605 499.176 480.684C499.191 481.115 499.211 481.55 499.225 481.986C499.23 482.094 499.235 482.202 499.24 482.309C499.259 482.74 499.274 483.171 499.294 483.607C499.294 483.626 499.294 483.651 499.299 483.67C499.318 484.116 499.338 484.566 499.362 485.017C499.367 485.124 499.372 485.232 499.377 485.345C499.397 485.79 499.421 486.241 499.446 486.686C499.45 486.75 499.45 486.809 499.455 486.872C499.475 487.283 499.499 487.695 499.519 488.106C499.524 488.204 499.529 488.302 499.534 488.4C499.558 488.84 499.583 489.286 499.607 489.731C499.612 489.834 499.622 489.942 499.627 490.045C499.651 490.461 499.676 490.872 499.7 491.288C499.705 491.342 499.705 491.401 499.71 491.455C499.739 491.91 499.764 492.365 499.793 492.821C499.798 492.928 499.808 493.041 499.813 493.149C499.842 493.609 499.871 494.074 499.901 494.534C499.901 494.549 499.901 494.563 499.906 494.578C499.935 495.033 499.964 495.489 499.999 495.944C500.004 496.037 500.013 496.135 500.018 496.228C500.048 496.683 500.082 497.139 500.116 497.594C500.121 497.677 500.126 497.756 500.136 497.839C500.165 498.25 500.195 498.656 500.224 499.068C500.229 499.151 500.234 499.229 500.244 499.312C500.278 499.763 500.312 500.213 500.346 500.659C500.356 500.762 500.361 500.86 500.371 500.962C500.405 501.418 500.439 501.873 500.479 502.323C500.479 502.328 500.479 502.328 500.479 502.333C500.513 502.793 500.552 503.249 500.586 503.704C500.596 503.807 500.601 503.915 500.611 504.017C500.645 504.468 500.684 504.918 500.718 505.364C500.723 505.403 500.723 505.442 500.728 505.481C500.762 505.912 500.802 506.338 500.836 506.764C500.841 506.842 500.851 506.921 500.856 506.994C500.895 507.44 500.929 507.88 500.968 508.321C500.973 508.404 500.983 508.487 500.988 508.566C501.022 508.977 501.061 509.388 501.095 509.799C501.1 509.838 501.1 509.878 501.105 509.922C501.144 510.372 501.184 510.818 501.223 511.263C501.228 511.337 501.237 511.405 501.242 511.479C501.321 512.375 501.404 513.256 501.482 514.127C501.487 514.191 501.492 514.255 501.502 514.313C501.541 514.739 501.58 515.165 501.619 515.586C501.624 515.64 501.629 515.694 501.634 515.748C501.673 516.154 501.712 516.551 501.747 516.952C501.751 516.986 501.751 517.016 501.756 517.05C501.796 517.471 501.84 517.887 501.879 518.299C501.884 518.362 501.893 518.426 501.898 518.494C501.938 518.896 501.977 519.292 502.016 519.684C502.016 519.694 502.016 519.699 502.016 519.708C502.055 520.115 502.094 520.516 502.138 520.918C502.143 520.977 502.148 521.035 502.158 521.094C502.236 521.892 502.319 522.675 502.398 523.439C502.403 523.478 502.407 523.517 502.407 523.552C502.447 523.934 502.486 524.315 502.525 524.688C502.525 524.707 502.53 524.727 502.53 524.751C502.569 525.128 502.608 525.5 502.647 525.867C502.647 525.872 502.647 525.877 502.647 525.887C502.687 526.244 502.721 526.597 502.76 526.945C502.765 526.998 502.77 527.047 502.775 527.101C502.848 527.787 502.922 528.452 502.99 529.094C502.995 529.128 502.995 529.162 503 529.192C503.034 529.52 503.068 529.843 503.108 530.156H405.984C405.96 530.102 405.935 530.048 405.911 529.995C405.769 529.681 405.622 529.358 405.475 529.035C405.426 528.922 405.372 528.81 405.318 528.692C405.147 528.31 404.971 527.919 404.789 527.522C404.736 527.4 404.682 527.277 404.623 527.155C404.491 526.856 404.354 526.553 404.217 526.244C404.143 526.083 404.07 525.916 403.996 525.75C403.825 525.368 403.649 524.976 403.472 524.585C403.389 524.399 403.306 524.213 403.223 524.022C403.105 523.757 402.988 523.493 402.87 523.229C402.767 523.003 402.67 522.773 402.567 522.543C402.439 522.254 402.312 521.965 402.185 521.677C402.043 521.349 401.896 521.021 401.749 520.693C401.641 520.448 401.534 520.203 401.426 519.953C401.309 519.689 401.191 519.42 401.074 519.15C400.98 518.935 400.883 518.72 400.79 518.504C400.594 518.054 400.393 517.593 400.192 517.133C400.094 516.913 400.001 516.693 399.903 516.472C399.781 516.183 399.654 515.9 399.526 515.611C399.438 515.405 399.345 515.195 399.257 514.989C399.032 514.47 398.807 513.946 398.582 513.417C398.503 513.231 398.42 513.045 398.342 512.859C398.205 512.536 398.063 512.213 397.926 511.885C397.852 511.714 397.779 511.547 397.705 511.376C397.455 510.788 397.206 510.201 396.951 509.608C396.878 509.442 396.809 509.275 396.736 509.104C396.589 508.761 396.442 508.414 396.3 508.066C396.232 507.91 396.168 507.748 396.099 507.591C395.84 506.97 395.575 506.348 395.316 505.721C395.247 505.56 395.184 505.403 395.115 505.241C394.968 504.889 394.822 504.536 394.675 504.184C394.606 504.017 394.538 503.851 394.469 503.689C394.21 503.058 393.95 502.426 393.691 501.795C393.627 501.638 393.563 501.481 393.5 501.325C393.353 500.967 393.206 500.61 393.064 500.248C392.995 500.086 392.932 499.92 392.863 499.758C392.609 499.131 392.354 498.5 392.104 497.873C392.036 497.707 391.967 497.535 391.904 497.369C391.762 497.016 391.62 496.664 391.483 496.311C391.414 496.135 391.345 495.964 391.277 495.787C391.037 495.175 390.792 494.563 390.557 493.956C390.489 493.78 390.42 493.604 390.347 493.423C390.215 493.085 390.082 492.742 389.95 492.404C389.877 492.209 389.798 492.018 389.725 491.822C389.505 491.244 389.284 490.671 389.064 490.098C388.991 489.908 388.917 489.712 388.844 489.521C388.721 489.193 388.599 488.87 388.477 488.547C388.398 488.341 388.32 488.13 388.246 487.925C388.051 487.406 387.86 486.892 387.674 486.378C387.59 486.148 387.502 485.917 387.419 485.687C387.306 485.384 387.199 485.085 387.091 484.787C387.008 484.561 386.929 484.336 386.851 484.116C386.685 483.656 386.523 483.205 386.366 482.75C386.273 482.49 386.18 482.231 386.092 481.971C385.994 481.692 385.896 481.413 385.803 481.134C385.725 480.904 385.642 480.669 385.564 480.439C385.436 480.062 385.309 479.685 385.182 479.313C385.079 479.009 384.976 478.706 384.878 478.402C384.795 478.148 384.712 477.893 384.628 477.639C384.55 477.394 384.472 477.154 384.393 476.914C384.315 476.674 384.242 476.434 384.163 476.199C385.49 476.953 386.719 477.457 390.817 477.79C408.931 479.259 408.931 471.426 432.921 476.322C456.911 481.217 478.452 480.728 482.369 452.332C486.183 424.685 500.483 398.967 530.348 397.009C560.213 395.051 588.966 404.172 588.966 404.172L584.427 409.998L582.004 409.983C582.004 409.983 581.989 409.983 581.97 409.978C581.96 409.978 581.95 409.978 581.935 409.973C581.921 409.973 581.906 409.968 581.886 409.968C581.867 409.968 581.847 409.963 581.828 409.963C581.798 409.959 581.759 409.959 581.72 409.954C581.691 409.949 581.661 409.949 581.627 409.944C581.598 409.939 581.563 409.939 581.529 409.934C581.48 409.929 581.436 409.924 581.387 409.919C581.304 409.91 581.211 409.9 581.113 409.89C581.084 409.885 581.049 409.885 581.015 409.88C580.927 409.87 580.834 409.861 580.736 409.851C580.707 409.846 580.672 409.846 580.638 409.841C580.535 409.831 580.432 409.821 580.32 409.807C580.276 409.802 580.232 409.797 580.183 409.792C580.08 409.782 579.977 409.773 579.864 409.763C579.801 409.758 579.737 409.748 579.669 409.743C579.532 409.728 579.39 409.714 579.238 409.699C579.204 409.694 579.179 409.694 579.145 409.689C578.959 409.67 578.768 409.65 578.567 409.635C578.508 409.631 578.445 409.626 578.381 409.616C578.234 409.601 578.082 409.587 577.931 409.572C577.857 409.567 577.779 409.557 577.701 409.552C577.534 409.538 577.363 409.518 577.191 409.503C577.137 409.498 577.079 409.493 577.025 409.489C576.829 409.469 576.623 409.449 576.413 409.43C576.359 409.425 576.305 409.42 576.251 409.415C575.992 409.391 575.723 409.366 575.448 409.342C575.444 409.342 575.434 409.342 575.429 409.342C575.179 409.317 574.92 409.298 574.66 409.273C574.562 409.263 574.459 409.254 574.357 409.244C574.161 409.224 573.96 409.21 573.754 409.19C573.661 409.18 573.573 409.175 573.48 409.165C573.265 409.146 573.045 409.126 572.819 409.107C572.731 409.097 572.643 409.092 572.555 409.082C572.281 409.058 572.002 409.033 571.713 409.009C571.674 409.004 571.635 409.004 571.595 408.999C571.272 408.97 570.944 408.945 570.611 408.916C570.523 408.906 570.435 408.901 570.347 408.891C570.097 408.872 569.848 408.847 569.588 408.828C569.475 408.818 569.363 408.808 569.255 408.798C569.01 408.779 568.761 408.759 568.511 408.74C568.403 408.73 568.296 408.72 568.188 408.715C567.924 408.695 567.659 408.671 567.39 408.651C567.287 408.642 567.184 408.637 567.081 408.627C566.347 408.568 565.598 408.509 564.829 408.456C564.722 408.446 564.619 408.441 564.511 408.431C564.237 408.412 563.968 408.392 563.689 408.372C563.552 408.363 563.41 408.353 563.268 408.343C563.003 408.323 562.739 408.304 562.47 408.284C562.337 408.274 562.205 408.265 562.073 408.255C561.76 408.23 561.441 408.211 561.123 408.186C561.04 408.181 560.957 408.177 560.874 408.167C560.467 408.137 560.061 408.113 559.65 408.083C559.566 408.079 559.483 408.074 559.4 408.069C559.072 408.049 558.739 408.025 558.406 408.005C558.279 407.995 558.151 407.99 558.029 407.981C557.74 407.961 557.446 407.942 557.158 407.927C557.011 407.917 556.869 407.907 556.722 407.897C556.428 407.878 556.134 407.863 555.836 407.844C555.708 407.834 555.576 407.829 555.449 407.819C550.524 407.53 545.373 407.3 540.438 407.202C540.061 407.192 539.689 407.188 539.312 407.183C539.302 407.183 539.293 407.183 539.288 407.183C538.798 407.173 538.314 407.168 537.829 407.163C537.711 407.163 537.589 407.163 537.471 407.158C536.487 407.148 535.513 407.148 534.558 407.153C534.441 407.153 534.328 407.153 534.211 407.153C533.261 407.158 532.326 407.173 531.41 407.197C531.298 407.202 531.185 407.202 531.073 407.207C530.162 407.232 529.276 407.261 528.414 407.3C528.306 407.305 528.199 407.31 528.096 407.315C527.665 407.334 527.239 407.359 526.823 407.383C525.08 407.486 523.411 407.873 521.854 408.5C521.496 408.642 521.144 408.803 520.801 408.975C520.757 408.999 520.708 409.019 520.664 409.038C520.336 409.2 520.018 409.376 519.704 409.562C519.651 409.596 519.592 409.631 519.538 409.66C519.23 409.846 518.931 410.047 518.637 410.252C518.588 410.287 518.539 410.321 518.49 410.36C518.192 410.575 517.898 410.801 517.614 411.041C517.589 411.06 517.565 411.085 517.54 411.104C517.261 411.344 516.987 411.589 516.723 411.848C516.698 411.873 516.679 411.892 516.654 411.912C516.39 412.171 516.14 412.441 515.896 412.72C515.856 412.764 515.817 412.808 515.778 412.857C515.543 413.131 515.318 413.41 515.102 413.704C515.063 413.758 515.024 413.807 514.985 413.861C514.769 414.154 514.564 414.458 514.368 414.771C514.344 414.815 514.314 414.859 514.29 414.898C514.089 415.227 513.893 415.564 513.717 415.907C513.546 416.245 513.384 416.592 513.237 416.945C513.193 417.048 513.154 417.155 513.11 417.258C513.002 417.523 512.904 417.787 512.816 418.061C512.777 418.169 512.743 418.277 512.708 418.389C512.591 418.761 512.483 419.133 512.395 419.515C512.302 419.907 512.209 420.308 512.111 420.71C512.087 420.813 512.062 420.915 512.038 421.018C511.94 421.425 511.842 421.836 511.734 422.252C511.729 422.267 511.729 422.281 511.724 422.291C511.621 422.707 511.514 423.128 511.406 423.554C511.377 423.662 511.352 423.77 511.323 423.877C511.098 424.749 510.867 425.645 510.623 426.551C510.593 426.663 510.559 426.781 510.53 426.893C510.285 427.804 510.03 428.724 509.761 429.65C509.727 429.762 509.697 429.88 509.663 429.992C509.531 430.457 509.394 430.927 509.252 431.393C509.046 432.088 508.831 432.788 508.615 433.483C508.4 434.178 508.175 434.873 507.95 435.559C507.724 436.244 507.489 436.93 507.254 437.605V437.61C507.019 438.286 506.779 438.952 506.535 439.608C506.339 440.132 506.138 440.646 505.937 441.155C505.903 441.218 505.874 441.292 505.844 441.365Z" fill="url(#paint8_radial)"/>
<path d="M574.362 570.072H713.981C717.066 570.072 719.567 567.57 719.567 564.486V422.448H568.776V564.486C568.776 567.57 571.277 570.072 574.362 570.072Z" fill="#FB8F8F"/>
<path d="M505.086 422.678H568.776V564.481C568.776 567.565 571.278 570.067 574.362 570.067H646.292C645.788 570.214 645.259 570.297 644.706 570.297H505.086C502.002 570.297 499.5 567.795 499.5 564.711V428.264C499.5 425.18 502.002 422.678 505.086 422.678Z" fill="#EECFF8"/>
<path d="M501.634 435.358C501.634 435.358 492.646 443.5 490.198 447.906C487.75 452.312 487.75 457.698 485.791 465.042C485.791 465.042 492.646 464.062 496.562 450.354C500.479 436.646 501.634 435.358 501.634 435.358Z" fill="url(#paint9_radial)"/>
<path opacity="0.57" d="M581.26 433.708L568.775 435.358V428.44L579.301 429.302L581.26 433.708Z" fill="url(#paint10_radial)"/>
<path d="M594.479 453.781H745.271L719.323 422.448H568.531L594.479 453.781Z" fill="#F9C1DA"/>
<path d="M406.205 530.646C400.364 517.78 389.53 493.173 384.159 476.18C385.486 476.934 386.715 477.438 390.812 477.771C408.927 479.24 408.927 471.406 432.917 476.302C456.906 481.198 478.448 480.708 482.364 452.312C486.178 424.666 500.479 398.948 530.344 396.99C560.208 395.031 588.961 404.152 588.961 404.152L584.423 409.978L582 409.964C582 409.964 568.913 408.558 554.177 407.726C552.664 407.643 551.136 407.56 549.604 407.491C548.835 407.457 548.067 407.423 547.303 407.393C545.002 407.3 542.701 407.227 540.444 407.183C540.067 407.173 539.695 407.168 539.318 407.163C534.838 407.095 530.559 407.144 526.824 407.364C525.081 407.467 523.411 407.853 521.854 408.48C518.359 409.89 515.455 412.514 513.722 415.892C513.145 417.018 512.694 418.228 512.396 419.501C511.563 423.03 510.506 427.197 509.262 431.383C509.057 432.078 508.841 432.778 508.626 433.473C508.41 434.169 508.185 434.864 507.96 435.549C507.735 436.239 507.5 436.92 507.265 437.596C507.03 438.271 506.79 438.937 506.545 439.593C505.688 441.889 504.778 444.053 503.828 445.963C503.284 447.054 502.726 448.063 502.153 448.964C502.011 449.189 501.869 449.409 501.723 449.62C499.701 452.582 498.981 460.694 498.991 470.897C498.971 490.04 501.605 516.82 503.123 530.646H406.205Z" fill="url(#paint11_radial)"/>
<path d="M533.77 423.427H566.572L568.775 428.323V435.667C568.775 435.667 543.072 436.156 532.791 447.417C522.51 458.677 516.145 510.573 499.499 506.656V451.128L533.77 423.427Z" fill="url(#paint12_radial)"/>
<path d="M583.219 440.073L568.531 422.448H649.312C649.312 422.448 660.083 441.052 583.219 440.073Z" fill="url(#paint13_radial)"/>
<path d="M643.564 401.621C647.598 402.169 650.932 405.166 651.73 409.156C652.45 412.769 652.078 417.748 648.333 423.917C640.348 437.072 572.863 427.686 536.272 434.257C533.418 434.771 530.877 436.391 529.188 438.751C524.919 444.709 516.689 456.831 514.187 465.042C510.76 476.302 506.843 492.458 504.395 498.823C504.395 498.823 502.682 499.557 502.192 494.172V473.12L498.275 486.338L496.317 499.068C496.317 499.068 493.869 499.068 491.911 493.682C491.911 493.682 489.953 495.151 488.973 488.786V480.953L486.036 474.099L489.953 451.578C489.953 451.578 504.865 428.538 511.362 423.657C517.859 418.776 557.515 412.901 587.38 404.578C610.199 398.218 633.728 400.289 643.564 401.621Z" fill="#FFDE99"/>
<path d="M525.389 444.229C525.389 444.229 525.384 444.229 525.389 444.229C519.998 437.963 515.293 430.697 512.948 422.737C522.75 418.037 559.371 412.387 587.38 404.578C610.199 398.218 633.728 400.289 643.564 401.621C647.598 402.169 650.932 405.166 651.73 409.156C652.45 412.769 652.078 417.748 648.333 423.917C640.759 436.391 579.659 428.592 542.162 433.361C535.65 434.188 529.795 437.738 526.103 443.167C525.868 443.515 525.628 443.867 525.389 444.229Z" fill="url(#paint14_radial)"/>
<path d="M496.317 499.068C496.317 499.068 493.869 499.068 491.911 493.682C491.911 493.682 489.953 495.151 488.974 488.786V480.953L486.036 474.099L489.635 453.801C489.635 453.801 500.968 461.615 507.333 459.656L501.948 472.875L501.82 474.373L498.276 486.339L496.317 499.068Z" fill="url(#paint15_radial)"/>
<path d="M349.197 447.906C365.354 445.458 388.854 410.208 388.854 410.208V426.365L388.584 426.893C388.594 426.8 388.599 426.707 388.609 426.609C388.609 426.609 368.536 444.234 362.661 451.088C362.661 451.088 365.109 452.557 364.13 454.516C363.15 456.474 362.661 459.411 362.661 459.411C362.661 459.411 360.688 458.966 357.643 458.432C357.623 457.154 356.996 455.47 354.583 453.781C349.687 450.354 329.614 453.781 329.614 453.781C329.614 453.781 333.041 450.354 349.197 447.906Z" fill="url(#paint16_radial)"/>
<path d="M514.677 364.187C514.677 364.187 488.239 357.823 483.833 367.615" stroke="#0061FE" stroke-width="0.489583" stroke-miterlimit="10"/>
<path d="M399.869 368.838C399.869 368.838 387.14 371.286 381.265 377.651" stroke="#0061FE" stroke-width="0.489583" stroke-miterlimit="10"/>
<path d="M432.887 464.219C432.887 464.219 446.365 471.617 458.159 464.41" stroke="#0061FE" stroke-width="0.489583" stroke-miterlimit="10"/>
<path d="M522.755 238.609C522.755 238.609 530.589 234.203 542.339 253.297C554.245 272.645 568.776 272.88 582.484 271.411" stroke="#0061FE" stroke-width="0.489583" stroke-miterlimit="10"/>
<path d="M161.996 333.099H178.265L173.114 316.835H156.845L161.996 333.099Z" stroke="#0061FE" stroke-width="0.489583" stroke-miterlimit="10"/>
<path d="M238.444 359.468C236.457 356.991 232.706 355.874 230.675 357.152C229.7 357.764 229.137 358.802 228.251 359.512C226.998 360.52 225.088 360.824 223.135 360.325C221.177 359.83 219.204 358.538 217.843 356.868" stroke="#FA404B" stroke-width="0.489583" stroke-miterlimit="10"/>
<path d="M151.225 283.651H167.494L162.343 267.387H146.074L151.225 283.651Z" fill="url(#paint17_radial)"/>
<path d="M157.766 304.302H174.03L168.879 288.033H152.615L157.766 304.302Z" fill="url(#paint18_radial)"/>
<path d="M164.301 324.947H180.565L175.415 308.678H159.151L164.301 324.947Z" fill="url(#paint19_radial)"/>
<path d="M161.09 275.465L159.372 279.764L149.056 271.167" stroke="white" stroke-width="0.489583" stroke-miterlimit="10"/>
<path d="M217 347.052H279.505C281.596 347.052 282.79 345.358 282.174 343.267L272.024 308.918C271.408 306.828 269.214 305.134 267.124 305.134H204.619C202.528 305.134 201.334 306.828 201.95 308.918L212.099 343.267C212.716 345.358 214.91 347.052 217 347.052Z" fill="#FB8F8F"/>
<path d="M202.098 335.792H267.418C269.508 335.792 270.703 334.098 270.086 332.007L259.443 295.974C258.826 293.883 256.632 292.189 254.542 292.189H189.222C187.131 292.189 185.937 293.883 186.553 295.974L197.197 332.007C197.814 334.098 200.007 335.792 202.098 335.792Z" stroke="#FB8F8F" stroke-width="0.489583" stroke-miterlimit="10"/>
<path d="M210.445 337.667H280.514L278.482 330.783H208.408L210.445 337.667Z" fill="url(#paint20_linear)"/>
<path d="M257.181 321.927H265.141C266.223 321.927 266.845 321.05 266.522 319.963L264.97 314.705C264.652 313.623 263.511 312.742 262.429 312.742H254.468C253.386 312.742 252.765 313.618 253.088 314.705L254.64 319.963C254.958 321.05 256.099 321.927 257.181 321.927Z" fill="url(#paint21_radial)"/>
<path d="M261.729 312.742L262.987 317.006L261.837 319.63L262.512 321.927" stroke="#F9C1DA" stroke-width="0.489583" stroke-miterlimit="10"/>
<path d="M261.837 319.631L258.899 317.006H253.769" stroke="#F9C1DA" stroke-width="0.489583" stroke-miterlimit="10"/>
<path d="M255.687 312.742L256.95 317.006" stroke="#F9C1DA" stroke-width="0.489583" stroke-miterlimit="10"/>
<path d="M217.001 347.052C214.91 347.052 212.717 345.358 212.1 343.267L201.951 308.918C201.334 306.828 202.529 305.134 204.619 305.134H215.777L247.051 347.052H217.001Z" fill="url(#paint22_radial)"/>
<path d="M189.378 418.531H327.842L295.055 316.698H156.591L189.378 418.531Z" fill="url(#paint23_radial)"/>
<path d="M187.39 382.057H305.38L301.953 372.755H183.963L187.39 382.057Z" stroke="white" stroke-width="0.489583" stroke-miterlimit="10"/>
<path d="M192.776 394.786H310.766L307.339 385.484H189.349L192.776 394.786Z" stroke="white" stroke-width="0.489583" stroke-miterlimit="10"/>
<path d="M197.182 407.515H315.172L311.745 398.213H193.755L197.182 407.515Z" stroke="white" stroke-width="0.489583" stroke-miterlimit="10"/>
<path d="M196.79 534.097H442.977C444.25 534.097 445.283 533.064 445.283 531.791V528.462C445.283 527.189 444.25 526.156 442.977 526.156H196.79C195.517 526.156 194.484 527.189 194.484 528.462V531.791C194.484 533.064 195.517 534.097 196.79 534.097Z" fill="#FB8F8F"/>
<path d="M196.791 534.097H343.715C344.988 534.097 346.021 533.064 346.021 531.791V528.462C346.021 527.189 344.988 526.156 343.715 526.156H196.786C195.513 526.156 194.48 527.189 194.48 528.462V531.791C194.485 533.064 195.518 534.097 196.791 534.097Z" fill="#F9C1DA"/>
<path d="M160.257 401.748H302.442C304.357 401.748 306.06 402.977 306.658 404.798L344.096 518.342C345.041 521.216 342.901 524.173 339.881 524.173H197.691C195.777 524.173 194.073 522.945 193.476 521.123L156.037 407.579C155.092 404.705 157.232 401.748 160.257 401.748Z" fill="#EECFF8"/>
<path d="M362.466 532.11H374.578C375.253 532.11 375.802 531.561 375.802 530.886V530.024C375.802 529.348 375.253 528.8 374.578 528.8H362.466C361.79 528.8 361.242 529.348 361.242 530.024V530.886C361.242 531.561 361.79 532.11 362.466 532.11Z" stroke="#0061FE" stroke-width="0.489583" stroke-miterlimit="10"/>
<path d="M203.978 532.443H216.09C216.766 532.443 217.314 531.894 217.314 531.219V530.357C217.314 529.681 216.766 529.133 216.09 529.133H203.978C203.302 529.133 202.754 529.681 202.754 530.357V531.219C202.754 531.894 203.302 532.443 203.978 532.443Z" stroke="#0061FE" stroke-width="0.489583" stroke-miterlimit="10"/>
<path d="M386.622 532.443H398.734C399.41 532.443 399.958 531.894 399.958 531.219V530.357C399.958 529.681 399.41 529.133 398.734 529.133H386.622C385.946 529.133 385.398 529.681 385.398 530.357V531.219C385.398 531.894 385.946 532.443 386.622 532.443Z" stroke="#0061FE" stroke-width="0.489583" stroke-miterlimit="10"/>
<path d="M353.531 532.443H354.392C355.068 532.443 355.616 531.894 355.616 531.219V530.357C355.616 529.681 355.068 529.133 354.392 529.133H353.531C352.855 529.133 352.307 529.681 352.307 530.357V531.219C352.307 531.894 352.855 532.443 353.531 532.443Z" stroke="#0061FE" stroke-width="0.489583" stroke-miterlimit="10"/>
<path d="M157.648 402.6C158.373 402.071 159.264 401.748 160.258 401.748H302.443C304.357 401.748 306.061 402.977 306.658 404.798L343.656 517.006L157.648 402.6Z" fill="url(#paint24_linear)"/>
<path d="M181.54 410.419L226.542 438.212" stroke="white" stroke-width="0.489583" stroke-miterlimit="10"/>
<path d="M713.448 480.885H840.548V569.719H713.448V480.885Z" fill="#DEF4FF"/>
<path d="M653.718 464.386H759.635V570.302H653.718V464.386Z" fill="#FFDE99"/>
<path d="M687.823 464.386H793.739V570.302H687.823V464.386Z" fill="#F1D23C"/>
<path d="M751.611 464.386H769.667V496.483H751.611V464.386Z" fill="#FB8F8F"/>
<path d="M476.979 512.042H572.938V579.114H476.979V512.042Z" fill="#F2F6FF"/>
<path d="M524.958 512.042H620.916V579.114H524.958V512.042Z" fill="url(#paint25_radial)"/>
<path d="M524.958 512.042L499.5 532.11L476.979 512.042" stroke="#0061FE" stroke-width="0.489583" stroke-miterlimit="10"/>
<path d="M525.203 579.359L499.745 564.672L477.224 579.359" stroke="#0061FE" stroke-width="0.489583" stroke-miterlimit="10"/>
<path d="M499.744 531.87V564.672" stroke="#0061FE" stroke-width="0.489583" stroke-miterlimit="10"/>
<path d="M775.463 307.376C777.901 310.593 777.803 315.484 775.233 318.597C772.266 322.191 766.881 323.146 764.08 326.867C761.946 329.701 761.852 333.907 763.86 336.834" stroke="#0061FE" stroke-width="0.489583" stroke-miterlimit="10"/>
<path d="M314.927 242.036C312.9 242.036 311.255 240.392 311.255 238.365C311.255 236.337 312.9 234.693 314.927 234.693C316.954 234.693 318.599 236.337 318.599 238.365C318.599 240.392 316.954 242.036 314.927 242.036Z" stroke="#0061FE" stroke-width="0.489583" stroke-miterlimit="10"/>
<path d="M646.862 342.335L651.59 343.607L650.317 348.335L645.59 347.062L646.862 342.335Z" stroke="#FA404B" stroke-width="0.489583" stroke-miterlimit="10"/>
<path d="M121.067 369.756L125.796 371.029L124.523 375.756L119.794 374.484L121.067 369.756Z" stroke="#0061FE" stroke-width="0.489583" stroke-miterlimit="10"/>
<path d="M273.557 593.068C273.557 593.068 255.932 573.484 230.473 584.255" stroke="#FA404B" stroke-width="0.489583" stroke-miterlimit="10"/>
<path d="M729.848 229.307L737.682 241.057" stroke="#FA404B" stroke-width="0.489583" stroke-miterlimit="10"/>
<path d="M776.849 593.068L769.505 598.453" stroke="#FA404B" stroke-width="0.489583" stroke-miterlimit="10"/>
<path d="M189.006 473.521C187.797 479.244 182.652 483.905 176.84 484.552C174.706 484.787 172.542 484.537 170.407 484.782C166.471 485.237 162.779 487.484 160.566 490.769" stroke="#0061FE" stroke-width="0.489583" stroke-miterlimit="10"/>
<defs>
<radialGradient id="paint0_radial" cx="0" cy="0" r="1" gradientUnits="userSpaceOnUse" gradientTransform="translate(615.667 217.639) rotate(166.185) scale(488.808 298.131)">
<stop stop-color="#EECFF8"/>
<stop offset="0.9011" stop-color="white" stop-opacity="0"/>
</radialGradient>
<radialGradient id="paint1_radial" cx="0" cy="0" r="1" gradientUnits="userSpaceOnUse" gradientTransform="translate(476.551 489.164) rotate(180) scale(333.733 171.406)">
<stop offset="0.3362" stop-color="#DEF4FF"/>
<stop offset="0.5609" stop-color="#E4F6FF" stop-opacity="0.6615"/>
<stop offset="0.8543" stop-color="#F4FBFF" stop-opacity="0.2196"/>
<stop offset="1" stop-color="white" stop-opacity="0"/>
</radialGradient>
<radialGradient id="paint2_radial" cx="0" cy="0" r="1" gradientUnits="userSpaceOnUse" gradientTransform="translate(424.814 340.765) rotate(180) scale(52.2709)">
<stop stop-color="#FA404B"/>
<stop offset="0.025" stop-color="#FA484F" stop-opacity="0.975"/>
<stop offset="0.1916" stop-color="#FC7565" stop-opacity="0.8084"/>
<stop offset="0.3589" stop-color="#FD9B78" stop-opacity="0.6411"/>
<stop offset="0.5244" stop-color="#FEB886" stop-opacity="0.4756"/>
<stop offset="0.6876" stop-color="#FECD91" stop-opacity="0.3124"/>
<stop offset="0.8474" stop-color="#FFDA97" stop-opacity="0.1526"/>
<stop offset="1" stop-color="#FFDE99" stop-opacity="0"/>
</radialGradient>
<radialGradient id="paint3_radial" cx="0" cy="0" r="1" gradientUnits="userSpaceOnUse" gradientTransform="translate(495.316 350.412) rotate(180) scale(86.5848)">
<stop stop-color="#FA404B"/>
<stop offset="0.025" stop-color="#FA484F" stop-opacity="0.975"/>
<stop offset="0.1916" stop-color="#FC7565" stop-opacity="0.8084"/>
<stop offset="0.3589" stop-color="#FD9B78" stop-opacity="0.6411"/>
<stop offset="0.5244" stop-color="#FEB886" stop-opacity="0.4756"/>
<stop offset="0.6876" stop-color="#FECD91" stop-opacity="0.3124"/>
<stop offset="0.8474" stop-color="#FFDA97" stop-opacity="0.1526"/>
<stop offset="1" stop-color="#FFDE99" stop-opacity="0"/>
</radialGradient>
<radialGradient id="paint4_radial" cx="0" cy="0" r="1" gradientUnits="userSpaceOnUse" gradientTransform="translate(421.103 282.509) rotate(180) scale(49.2942)">
<stop stop-color="#FA404B"/>
<stop offset="0.025" stop-color="#FA484F" stop-opacity="0.975"/>
<stop offset="0.1916" stop-color="#FC7565" stop-opacity="0.8084"/>
<stop offset="0.3589" stop-color="#FD9B78" stop-opacity="0.6411"/>
<stop offset="0.5244" stop-color="#FEB886" stop-opacity="0.4756"/>
<stop offset="0.6876" stop-color="#FECD91" stop-opacity="0.3124"/>
<stop offset="0.8474" stop-color="#FFDA97" stop-opacity="0.1526"/>
<stop offset="1" stop-color="#FFDE99" stop-opacity="0"/>
</radialGradient>
<radialGradient id="paint5_radial" cx="0" cy="0" r="1" gradientUnits="userSpaceOnUse" gradientTransform="translate(529.055 278.969) rotate(180) scale(74.3839)">
<stop offset="0.0936" stop-color="#241921"/>
<stop offset="1" stop-color="#0144B9" stop-opacity="0"/>
</radialGradient>
<radialGradient id="paint6_radial" cx="0" cy="0" r="1" gradientUnits="userSpaceOnUse" gradientTransform="translate(341.081 444.751) rotate(180) scale(76.2305)">
<stop stop-color="#FA404B"/>
<stop offset="0.025" stop-color="#FA484F" stop-opacity="0.975"/>
<stop offset="0.1916" stop-color="#FC7565" stop-opacity="0.8084"/>
<stop offset="0.3589" stop-color="#FD9B78" stop-opacity="0.6411"/>
<stop offset="0.5244" stop-color="#FEB886" stop-opacity="0.4756"/>
<stop offset="0.6876" stop-color="#FECD91" stop-opacity="0.3124"/>
<stop offset="0.8474" stop-color="#FFDA97" stop-opacity="0.1526"/>
<stop offset="1" stop-color="#FFDE99" stop-opacity="0"/>
</radialGradient>
<radialGradient id="paint7_radial" cx="0" cy="0" r="1" gradientUnits="userSpaceOnUse" gradientTransform="translate(369.652 504.275) rotate(180) scale(27.5441)">
<stop stop-color="#FA404B"/>
<stop offset="0.025" stop-color="#FA484F" stop-opacity="0.975"/>
<stop offset="0.1916" stop-color="#FC7565" stop-opacity="0.8084"/>
<stop offset="0.3589" stop-color="#FD9B78" stop-opacity="0.6411"/>
<stop offset="0.5244" stop-color="#FEB886" stop-opacity="0.4756"/>
<stop offset="0.6876" stop-color="#FECD91" stop-opacity="0.3124"/>
<stop offset="0.8474" stop-color="#FFDA97" stop-opacity="0.1526"/>
<stop offset="1" stop-color="#FFDE99" stop-opacity="0"/>
</radialGradient>
<radialGradient id="paint8_radial" cx="0" cy="0" r="1" gradientUnits="userSpaceOnUse" gradientTransform="translate(546.644 452.499) rotate(180) scale(90.006)">
<stop offset="0.0936" stop-color="#241921"/>
<stop offset="1" stop-color="#0144B9" stop-opacity="0"/>
</radialGradient>
<radialGradient id="paint9_radial" cx="0" cy="0" r="1" gradientUnits="userSpaceOnUse" gradientTransform="translate(512.477 444.448) rotate(180) scale(34.5582)">
<stop stop-color="#FA404B"/>
<stop offset="0.025" stop-color="#FA484F"/>
<stop offset="0.1916" stop-color="#FC7565"/>
<stop offset="0.3589" stop-color="#FD9B78"/>
<stop offset="0.5244" stop-color="#FEB886"/>
<stop offset="0.6876" stop-color="#FECD91"/>
<stop offset="0.8474" stop-color="#FFDA97"/>
<stop offset="1" stop-color="#FFDE99"/>
</radialGradient>
<radialGradient id="paint10_radial" cx="0" cy="0" r="1" gradientUnits="userSpaceOnUse" gradientTransform="translate(594.174 411.373) rotate(180) scale(36.4506)">
<stop offset="0.0936" stop-color="#241921"/>
<stop offset="1" stop-color="#0144B9" stop-opacity="0"/>
</radialGradient>
<radialGradient id="paint11_radial" cx="0" cy="0" r="1" gradientUnits="userSpaceOnUse" gradientTransform="translate(352.341 471.943) rotate(180) scale(94.0617)">
<stop offset="0.0936" stop-color="#241921"/>
<stop offset="1" stop-color="#0144B9" stop-opacity="0"/>
</radialGradient>
<radialGradient id="paint12_radial" cx="0" cy="0" r="1" gradientUnits="userSpaceOnUse" gradientTransform="translate(529.966 415.578) rotate(180) scale(86.785)">
<stop stop-color="#FB8F8F"/>
<stop offset="1" stop-color="#F9C1DA" stop-opacity="0"/>
</radialGradient>
<radialGradient id="paint13_radial" cx="0" cy="0" r="1" gradientUnits="userSpaceOnUse" gradientTransform="translate(621.197 400.057) rotate(180) scale(69.8449)">
<stop stop-color="#FB8F8F"/>
<stop offset="1" stop-color="#F9C1DA" stop-opacity="0"/>
</radialGradient>
<radialGradient id="paint14_radial" cx="0" cy="0" r="1" gradientUnits="userSpaceOnUse" gradientTransform="translate(697.167 443.361) rotate(180) scale(203.12 203.12)">
<stop stop-color="#FA404B"/>
<stop offset="0.025" stop-color="#FA484F" stop-opacity="0.975"/>
<stop offset="0.1916" stop-color="#FC7565" stop-opacity="0.8084"/>
<stop offset="0.3589" stop-color="#FD9B78" stop-opacity="0.6411"/>
<stop offset="0.5244" stop-color="#FEB886" stop-opacity="0.4756"/>
<stop offset="0.6876" stop-color="#FECD91" stop-opacity="0.3124"/>
<stop offset="0.8474" stop-color="#FFDA97" stop-opacity="0.1526"/>
<stop offset="1" stop-color="#FFDE99" stop-opacity="0"/>
</radialGradient>
<radialGradient id="paint15_radial" cx="0" cy="0" r="1" gradientUnits="userSpaceOnUse" gradientTransform="translate(498.919 447.503) rotate(180) scale(45.3592)">
<stop stop-color="#FA404B"/>
<stop offset="0.025" stop-color="#FA484F" stop-opacity="0.975"/>
<stop offset="0.1916" stop-color="#FC7565" stop-opacity="0.8084"/>
<stop offset="0.3589" stop-color="#FD9B78" stop-opacity="0.6411"/>
<stop offset="0.5244" stop-color="#FEB886" stop-opacity="0.4756"/>
<stop offset="0.6876" stop-color="#FECD91" stop-opacity="0.3124"/>
<stop offset="0.8474" stop-color="#FFDA97" stop-opacity="0.1526"/>
<stop offset="1" stop-color="#FFDE99" stop-opacity="0"/>
</radialGradient>
<radialGradient id="paint16_radial" cx="0" cy="0" r="1" gradientUnits="userSpaceOnUse" gradientTransform="translate(377.691 480.528) rotate(180) scale(81.2547)">
<stop offset="0.0936" stop-color="#241921"/>
<stop offset="1" stop-color="#0144B9" stop-opacity="0"/>
</radialGradient>
<radialGradient id="paint17_radial" cx="0" cy="0" r="1" gradientUnits="userSpaceOnUse" gradientTransform="translate(166.847 260.107) rotate(180) scale(53.0459)">
<stop stop-color="#0061FE"/>
<stop offset="1" stop-color="white"/>
</radialGradient>
<radialGradient id="paint18_radial" cx="0" cy="0" r="1" gradientUnits="userSpaceOnUse" gradientTransform="translate(184.903 272.476) rotate(180) scale(96.2937)">
<stop stop-color="#0061FE"/>
<stop offset="1" stop-color="white"/>
</radialGradient>
<radialGradient id="paint19_radial" cx="0" cy="0" r="1" gradientUnits="userSpaceOnUse" gradientTransform="translate(182.431 279.897) rotate(180) scale(76.0237 76.023)">
<stop stop-color="#0061FE"/>
<stop offset="1" stop-color="white"/>
</radialGradient>
<linearGradient id="paint20_linear" x1="279.496" y1="334.226" x2="215.047" y2="353.264" gradientUnits="userSpaceOnUse">
<stop offset="0.1791" stop-color="#F9C1DA"/>
<stop offset="1" stop-color="#EECFF8" stop-opacity="0"/>
</linearGradient>
<radialGradient id="paint21_radial" cx="0" cy="0" r="1" gradientUnits="userSpaceOnUse" gradientTransform="translate(256.995 301.372) rotate(180) scale(40.9025 49.6677)">
<stop stop-color="#0061FE"/>
<stop offset="1" stop-color="white"/>
</radialGradient>
<radialGradient id="paint22_radial" cx="0" cy="0" r="1" gradientUnits="userSpaceOnUse" gradientTransform="translate(209.446 274.879) rotate(180) scale(60.5243)">
<stop offset="0.1791" stop-color="#F9C1DA"/>
<stop offset="1" stop-color="#EECFF8" stop-opacity="0"/>
</radialGradient>
<radialGradient id="paint23_radial" cx="0" cy="0" r="1" gradientUnits="userSpaceOnUse" gradientTransform="translate(216.168 475.776) rotate(180) scale(323.147)">
<stop stop-color="#0061FE"/>
<stop offset="0.0281" stop-color="#106CFE" stop-opacity="0.9719"/>
<stop offset="0.1219" stop-color="#408BFE" stop-opacity="0.8781"/>
<stop offset="0.2211" stop-color="#6AA7FE" stop-opacity="0.7789"/>
<stop offset="0.3241" stop-color="#8EBFFF" stop-opacity="0.6759"/>
<stop offset="0.4318" stop-color="#ABD2FF" stop-opacity="0.5682"/>
<stop offset="0.546" stop-color="#C2E1FF" stop-opacity="0.454"/>
<stop offset="0.6696" stop-color="#D2ECFF" stop-opacity="0.3304"/>
<stop offset="0.8094" stop-color="#DBF2FF" stop-opacity="0.1906"/>
<stop offset="1" stop-color="#DEF4FF" stop-opacity="0"/>
</radialGradient>
<linearGradient id="paint24_linear" x1="343.661" y1="459.375" x2="157.648" y2="459.375" gradientUnits="userSpaceOnUse">
<stop offset="0.1791" stop-color="#F9C1DA"/>
<stop offset="1" stop-color="#EECFF8" stop-opacity="0"/>
</linearGradient>
<radialGradient id="paint25_radial" cx="0" cy="0" r="1" gradientUnits="userSpaceOnUse" gradientTransform="translate(653.945 419.015) rotate(180) scale(214.603)">
<stop stop-color="#0061FE"/>
<stop offset="1" stop-color="white"/>
</radialGradient>
</defs>
</svg>
